M48
; DRILL file {KiCad 9.0.8-9.0.8~ubuntu24.04.1} date 2026-04-28T13:56:34-0300
; FORMAT={-:-/ absolute / metric / decimal}
; #@! TF.CreationDate,2026-04-28T13:56:34-03:00
; #@! TF.GenerationSoftware,Kicad,Pcbnew,9.0.8-9.0.8~ubuntu24.04.1
; #@! TF.FileFunction,Plated,1,2,PTH
FMAT,2
METRIC
; #@! TA.AperFunction,Plated,PTH,ComponentDrill
T1C0.500
; #@! TA.AperFunction,Plated,PTH,ComponentDrill
T2C1.000
; #@! TA.AperFunction,Plated,PTH,ComponentDrill
T3C3.200
%
G90
G05
T1
X89.29Y-135.645
X89.993Y-133.948
X89.993Y-137.342
X91.69Y-133.245
X91.69Y-138.045
X93.1Y-49.92
X93.387Y-133.948
X93.387Y-137.342
X93.803Y-48.223
X93.803Y-51.617
X94.09Y-135.645
X95.5Y-47.52
X95.5Y-52.32
X97.197Y-48.223
X97.197Y-51.617
X97.9Y-49.92
X166.76Y-49.92
X167.463Y-48.223
X167.463Y-51.617
X169.16Y-47.52
X169.16Y-52.32
X169.3Y-135.645
X170.003Y-133.948
X170.003Y-137.342
X170.857Y-48.223
X170.857Y-51.617
X171.56Y-49.92
X171.7Y-133.245
X171.7Y-138.045
X173.397Y-133.948
X173.397Y-137.342
X174.1Y-135.645
T2
X100.58Y-55.0
X100.58Y-57.54
X100.6Y-49.9
X100.6Y-52.44
X103.12Y-55.0
X103.12Y-57.54
X103.14Y-49.9
X103.14Y-52.44
X105.66Y-55.0
X105.66Y-57.54
X105.68Y-49.9
X105.68Y-52.44
X108.2Y-55.0
X108.2Y-57.54
X108.22Y-49.9
X108.22Y-52.44
X110.74Y-55.0
X110.74Y-57.54
X110.76Y-49.9
X110.76Y-52.44
X113.28Y-55.0
X113.28Y-57.54
X113.3Y-49.9
X113.3Y-52.44
X115.82Y-55.0
X115.82Y-57.54
X115.84Y-49.9
X115.84Y-52.44
X118.36Y-55.0
X118.36Y-57.54
X118.38Y-49.9
X118.38Y-52.44
X120.9Y-55.0
X120.9Y-57.54
X120.92Y-49.9
X120.92Y-52.44
X123.44Y-55.0
X123.44Y-57.54
X123.46Y-49.9
X123.46Y-52.44
X125.98Y-55.0
X125.98Y-57.54
X126.0Y-49.9
X126.0Y-52.44
X128.52Y-55.0
X128.52Y-57.54
X128.54Y-49.9
X128.54Y-52.44
X131.06Y-55.0
X131.06Y-57.54
X131.08Y-49.9
X131.08Y-52.44
X133.6Y-55.0
X133.6Y-57.54
X133.62Y-49.9
X133.62Y-52.44
X136.14Y-55.0
X136.14Y-57.54
X136.16Y-49.9
X136.16Y-52.44
X138.68Y-55.0
X138.68Y-57.54
X138.7Y-49.9
X138.7Y-52.44
X141.22Y-55.0
X141.22Y-57.54
X141.24Y-49.9
X141.24Y-52.44
X143.76Y-55.0
X143.76Y-57.54
X143.78Y-49.9
X143.78Y-52.44
X146.3Y-55.0
X146.3Y-57.54
X146.32Y-49.9
X146.32Y-52.44
X148.84Y-55.0
X148.84Y-57.54
X148.86Y-49.9
X148.86Y-52.44
X151.38Y-55.0
X151.38Y-57.54
X151.4Y-49.9
X151.4Y-52.44
X153.92Y-55.0
X153.92Y-57.54
X153.94Y-49.9
X153.94Y-52.44
X156.46Y-55.0
X156.46Y-57.54
X156.48Y-49.9
X156.48Y-52.44
X159.0Y-55.0
X159.0Y-57.54
X159.02Y-49.9
X159.02Y-52.44
X161.54Y-55.0
X161.54Y-57.54
X161.56Y-49.9
X161.56Y-52.44
X164.08Y-55.0
X164.08Y-57.54
X164.1Y-49.9
X164.1Y-52.44
T3
X91.69Y-135.645
X95.5Y-49.92
X169.16Y-49.92
X171.7Y-135.645
M30
