%TF.GenerationSoftware,KiCad,Pcbnew,9.0.8-9.0.8~ubuntu24.04.1*%
%TF.CreationDate,2026-04-28T13:56:41-03:00*%
%TF.ProjectId,ITFA-CUBE-ING-V00,49544641-2d43-4554-9245-2d494e472d56,rev?*%
%TF.SameCoordinates,Original*%
%TF.FileFunction,Profile,NP*%
%FSLAX46Y46*%
G04 Gerber Fmt 4.6, Leading zero omitted, Abs format (unit mm)*
G04 Created by KiCad (PCBNEW 9.0.8-9.0.8~ubuntu24.04.1) date 2026-04-28 13:56:41*
%MOMM*%
%LPD*%
G01*
G04 APERTURE LIST*
%TA.AperFunction,Profile*%
%ADD10C,0.100000*%
%TD*%
G04 APERTURE END LIST*
D10*
X86610000Y-45792500D02*
X86610000Y-81682700D01*
X86610000Y-45792500D02*
G75*
G02*
X87562500Y-44840000I952500J0D01*
G01*
X86610000Y-103882300D02*
X86610000Y-139772500D01*
X86610000Y-103882300D02*
G75*
G02*
X87562500Y-102929800I952500J0D01*
G01*
X87562500Y-44840000D02*
X121725500Y-44840000D01*
X87562500Y-82635200D02*
G75*
G02*
X86610000Y-81682700I0J952500D01*
G01*
X87562500Y-82635200D02*
G75*
G02*
X88515000Y-83587700I0J-952500D01*
G01*
X87562500Y-140725000D02*
G75*
G02*
X86610000Y-139772500I0J952500D01*
G01*
X87562500Y-140725000D02*
X121725500Y-140725000D01*
X88515000Y-83587700D02*
X88515000Y-101977300D01*
X88515000Y-101977300D02*
G75*
G02*
X87562500Y-102929800I-952500J0D01*
G01*
X121725500Y-44840000D02*
G75*
G02*
X122678000Y-45792500I0J-952500D01*
G01*
X122678000Y-139772500D02*
G75*
G02*
X121725500Y-140725000I-952500J0D01*
G01*
X122678000Y-139772500D02*
G75*
G02*
X123630500Y-138820000I952500J0D01*
G01*
X123630500Y-46745000D02*
G75*
G02*
X122678000Y-45792500I0J952500D01*
G01*
X123630500Y-46745000D02*
X142045500Y-46745000D01*
X123630500Y-138820000D02*
X142045500Y-138820000D01*
X142045500Y-138820000D02*
G75*
G02*
X142998000Y-139772500I0J-952500D01*
G01*
X142998000Y-45792500D02*
G75*
G02*
X142045500Y-46745000I-952500J0D01*
G01*
X142998000Y-45792500D02*
G75*
G02*
X143950500Y-44840000I952500J0D01*
G01*
X143950500Y-44840000D02*
X175827500Y-44840000D01*
X143950500Y-140725000D02*
G75*
G02*
X142998000Y-139772500I0J952500D01*
G01*
X143950500Y-140725000D02*
X175827500Y-140725000D01*
X174875000Y-83587700D02*
X174875000Y-101977300D01*
X174875000Y-83587700D02*
G75*
G02*
X175827500Y-82635200I952500J0D01*
G01*
X175827500Y-44840000D02*
G75*
G02*
X176780000Y-45792500I0J-952500D01*
G01*
X175827500Y-102929800D02*
G75*
G02*
X174875000Y-101977300I0J952500D01*
G01*
X175827500Y-102929800D02*
G75*
G02*
X176780000Y-103882300I0J-952500D01*
G01*
X176780000Y-45792500D02*
X176780000Y-81682700D01*
X176780000Y-81682700D02*
G75*
G02*
X175827500Y-82635200I-952500J0D01*
G01*
X176780000Y-103882300D02*
X176780000Y-139772500D01*
X176780000Y-139772500D02*
G75*
G02*
X175827500Y-140725000I-952500J0D01*
G01*
M02*
